<?xml version="1.0" encoding="UTF-8" standalone="no"?>
<svg
   xmlns:dc="http://purl.org/dc/elements/1.1/"
   xmlns:cc="http://creativecommons.org/ns#"
   xmlns:rdf="http://www.w3.org/1999/02/22-rdf-syntax-ns#"
   xmlns:svg="http://www.w3.org/2000/svg"
   xmlns="http://www.w3.org/2000/svg"
   id="svg8"
   version="1.1"
   viewBox="0 0 100.87277 144.64238"
   height="144.64238mm"
   width="100.87276mm">
  <defs
     id="defs2" />
  <metadata
     id="metadata5">
    <rdf:RDF>
      <cc:Work
         rdf:about="">
        <dc:format>image/svg+xml</dc:format>
        <dc:type
           rdf:resource="http://purl.org/dc/dcmitype/StillImage" />
        <dc:title></dc:title>
      </cc:Work>
    </rdf:RDF>
  </metadata>
  <g
     transform="translate(-2.7356568,-1.5087616)"
     id="layer1">
    <path
       id="rect826"
       d="M 22.684501,1.6337611 103.48343,73.813242 92.16214,84.882482 9.8889716,2.9366981 Z"
       style="opacity:1;fill:#ffffff;fill-opacity:1;stroke:none;stroke-width:0.25;stroke-linecap:round;stroke-linejoin:round;stroke-miterlimit:4;stroke-dasharray:none;stroke-dashoffset:0;stroke-opacity:1;paint-order:fill markers stroke" />
    <path
       style="opacity:1;fill:#ffffff;fill-opacity:1;stroke:none;stroke-width:0.25;stroke-linecap:round;stroke-linejoin:round;stroke-miterlimit:4;stroke-dasharray:none;stroke-dashoffset:0;stroke-opacity:1;paint-order:fill markers stroke"
       d="M 29.700326,145.99273 103.48343,73.813242 93.21124,64.654762 11.358954,146.02614 Z"
       id="path829" />
    <path
       id="path831"
       d="m 69.680932,43.738718 c 0,0 3.709348,3.292233 3.709348,3.292233 0,0 -38.739735,38.637131 -38.739735,38.637131 0,0 37.537525,37.520328 37.537525,37.520328 0,0 -9.630789,-0.0405 -9.630789,-0.0405 0,0 -39.08481,-38.178998 -39.08481,-38.178998 0,0 46.208461,-41.230194 46.208461,-41.230194 z"
       style="fill:#ffffff;fill-opacity:1;stroke:none;stroke-width:0.26458332px;stroke-linecap:butt;stroke-linejoin:miter;stroke-opacity:1" />
    <path
       id="path837"
       d="m 2.9065566,129.25496 c 0,0 4.142677,-4.67722 4.142677,-4.67722 0,0 5.6794774,-97.419739 5.6794774,-97.419739 0,0 -9.8221544,102.096959 -9.8221544,102.096959 z"
       style="fill:#ffffff;fill-opacity:1;stroke:none;stroke-width:0.26499999;stroke-linecap:square;stroke-linejoin:miter;stroke-miterlimit:4;stroke-dasharray:none;stroke-opacity:1" />
  </g>
</svg>
